<svg version="1.0" xmlns="http://www.w3.org/2000/svg" width="40" height="40" viewBox="0 0 30 30"><path d="M14 3.5c0 1.4.5 2.5 1 2.5.6 0 1-1.1 1-2.5S15.6 1 15 1c-.5 0-1 1.1-1 2.5zM5 5.9c0 1.3 2.9 3.5 3.7 2.8C9.4 7.9 7.2 5 5.9 5c-.5 0-.9.4-.9.9zM22 6.5c-.7.9-1 1.8-.7 2.2.8.7 3.7-1.5 3.7-2.8 0-1.4-1.6-1.1-3 .6zM10.2 10.3c-2.8 3-2.8 6.8.1 9.5 3 2.8 6.8 2.8 9.5-.1 2.8-3 2.8-6.8-.1-9.5-3-2.8-6.8-2.8-9.5.1zM1 15c0 .5 1.1 1 2.5 1S6 15.5 6 15c0-.6-1.1-1-2.5-1S1 14.4 1 15zM24 15c0 .5 1.1 1 2.5 1s2.5-.5 2.5-1c0-.6-1.1-1-2.5-1s-2.5.4-2.5 1zM6 22.5c-.7.9-1 1.8-.7 2.2.8.7 3.7-1.5 3.7-2.8 0-1.4-1.6-1.1-3 .6zM21 21.9c0 1.3 2.9 3.5 3.7 2.8.7-.8-1.5-3.7-2.8-3.7-.5 0-.9.4-.9.9zM14 26.5c0 1.4.5 2.5 1 2.5.6 0 1-1.1 1-2.5s-.4-2.5-1-2.5c-.5 0-1 1.1-1 2.5z"/></svg>